inDegrees=no
DataType=double
version=3
OpenSimVersion=4.4-2022-10-11-798caa840
endheader
time	elv_angle	shoulder_elv	shoulder_rot	elbow_flexion	pro_sup	deviation	flexion
0.0000000000	0.3287734985	0.2139318138	1.3350244761	1.6355481148	0.0000000000	0.0000000000	0.0000000000
0.0041702867	0.3629992604	0.2215370834	1.3453159332	1.6386615038	0.0000000000	0.0000000000	0.0000000000
0.0083405734	0.3842310905	0.2273264825	1.3528053761	1.6422901154	0.0000000000	0.0000000000	0.0000000000
0.0125108601	0.4441332817	0.2418593466	1.3702374697	1.6462665796	0.0000000000	0.0000000000	0.0000000000
0.0166811468	0.4552710652	0.2446887195	1.3732978106	1.6469743252	0.0000000000	0.0000000000	0.0000000000
0.0208514335	0.4724253118	0.2491566390	1.3780885935	1.6480046511	0.0000000000	0.0000000000	0.0000000000
0.0250217202	0.5052050352	0.2575111091	1.3871092796	1.6480896473	0.0000000000	0.0000000000	0.0000000000
0.0291920070	0.5320661068	0.2649826109	1.3945599794	1.6487032175	0.0000000000	0.0000000000	0.0000000000
0.0333622937	0.5551640987	0.2718130946	1.4008843899	1.6490825415	0.0000000000	0.0000000000	0.0000000000
0.0375325804	0.5642216802	0.2744915187	1.4034672976	1.6495392323	0.0000000000	0.0000000000	0.0000000000
0.0417028671	0.5732109547	0.2773363888	1.4059420824	1.6497246027	0.0000000000	0.0000000000	0.0000000000
0.0458731538	0.5819224119	0.2801430523	1.4083636999	1.6502000093	0.0000000000	0.0000000000	0.0000000000
0.0500434405	0.6688758731	0.3089801073	1.4311885834	1.6480888128	0.0000000000	0.0000000000	0.0000000000
0.0542137272	0.7215480804	0.3306979835	1.4469747543	1.6487133503	0.0000000000	0.0000000000	0.0000000000
0.0583840139	0.7750394344	0.3549556732	1.4633529186	1.6474481821	0.0000000000	0.0000000000	0.0000000000
0.0625543006	0.7815297842	0.3582938015	1.4655524492	1.6475629807	0.0000000000	0.0000000000	0.0000000000
0.0667245873	0.7900296450	0.3627186716	1.4684926271	1.6475697756	0.0000000000	0.0000000000	0.0000000000
0.0708948740	0.8031169772	0.3694984913	1.4729467630	1.6473486423	0.0000000000	0.0000000000	0.0000000000
0.0750651607	0.8138579726	0.3752188683	1.4767410755	1.6470936537	0.0000000000	0.0000000000	0.0000000000
0.0792354474	0.8201603293	0.3787316084	1.4789680243	1.6470705271	0.0000000000	0.0000000000	0.0000000000
0.0834057341	0.8281064034	0.3831682503	1.4817639589	1.6466819048	0.0000000000	0.0000000000	0.0000000000
0.0875760209	0.8281672001	0.3831479549	1.4817504883	1.6466808319	0.0000000000	0.0000000000	0.0000000000
0.0917463076	0.8350312114	0.3871709108	1.4842429161	1.6469593048	0.0000000000	0.0000000000	0.0000000000
0.0959165943	0.8405038714	0.3903890550	1.4862556458	1.6469930410	0.0000000000	0.0000000000	0.0000000000
0.1000868810	0.8468260765	0.3941569626	1.4885829687	1.6468538046	0.0000000000	0.0000000000	0.0000000000
0.1042571677	0.8468410969	0.3941556811	1.4885896444	1.6468625069	0.0000000000	0.0000000000	0.0000000000
0.1084274544	0.8580684066	0.4009099603	1.4927517176	1.6467837095	0.0000000000	0.0000000000	0.0000000000
0.1125977411	0.8742874265	0.4103476405	1.4986184835	1.6452536583	0.0000000000	0.0000000000	0.0000000000
0.1167680278	0.8774187565	0.4125185609	1.4998198748	1.6455419064	0.0000000000	0.0000000000	0.0000000000
0.1209383145	0.8869143724	0.4181144238	1.5031732321	1.6442718506	0.0000000000	0.0000000000	0.0000000000
0.1251086012	0.8913880587	0.4212442935	1.5050456524	1.6446088552	0.0000000000	0.0000000000	0.0000000000
0.1292788879	0.8968843818	0.4249905646	1.5072416067	1.6445494890	0.0000000000	0.0000000000	0.0000000000
0.1334491746	0.9017693996	0.4285120368	1.5093612671	1.6449781656	0.0000000000	0.0000000000	0.0000000000
0.1376194613	0.9074602127	0.4323877692	1.5115655661	1.6447280645	0.0000000000	0.0000000000	0.0000000000
0.1417897480	0.9107491970	0.4347664118	1.5129448175	1.6450781822	0.0000000000	0.0000000000	0.0000000000
0.1459600348	0.9107491970	0.4347664118	1.5129448175	1.6450781822	0.0000000000	0.0000000000	0.0000000000
0.1501303215	0.9107491970	0.4347664118	1.5129448175	1.6450781822	0.0000000000	0.0000000000	0.0000000000
0.1543006082	0.9107491970	0.4347664118	1.5129448175	1.6450781822	0.0000000000	0.0000000000	0.0000000000
0.1584708949	0.9107491970	0.4347664118	1.5129448175	1.6450781822	0.0000000000	0.0000000000	0.0000000000
0.1626411816	0.9107491970	0.4347664118	1.5129448175	1.6450781822	0.0000000000	0.0000000000	0.0000000000
0.1668114683	0.9107491970	0.4347664118	1.5129448175	1.6450781822	0.0000000000	0.0000000000	0.0000000000
0.1709817550	0.9107491970	0.4347664118	1.5129448175	1.6450781822	0.0000000000	0.0000000000	0.0000000000
0.1751520417	0.9107491970	0.4347664118	1.5129448175	1.6450781822	0.0000000000	0.0000000000	0.0000000000
0.1793223284	0.9107491970	0.4347664118	1.5129448175	1.6450781822	0.0000000000	0.0000000000	0.0000000000
0.1834926151	0.9107491970	0.4347664118	1.5129448175	1.6450781822	0.0000000000	0.0000000000	0.0000000000
0.1876629018	0.9107491970	0.4347664118	1.5129448175	1.6450781822	0.0000000000	0.0000000000	0.0000000000
0.1918331885	0.9107491970	0.4347664118	1.5129448175	1.6450781822	0.0000000000	0.0000000000	0.0000000000
0.1960034752	0.9107491970	0.4347664118	1.5129448175	1.6450781822	0.0000000000	0.0000000000	0.0000000000
0.2001737619	0.9107491970	0.4347664118	1.5129448175	1.6450781822	0.0000000000	0.0000000000	0.0000000000
0.2043440487	0.9107491970	0.4347664118	1.5129448175	1.6450781822	0.0000000000	0.0000000000	0.0000000000
0.2085143354	0.9107491970	0.4347664118	1.5129448175	1.6450781822	0.0000000000	0.0000000000	0.0000000000
0.2126846221	0.9107491970	0.4347664118	1.5129448175	1.6450781822	0.0000000000	0.0000000000	0.0000000000
0.2168549088	0.9107491970	0.4347664118	1.5129448175	1.6450781822	0.0000000000	0.0000000000	0.0000000000
0.2210251955	0.9107491970	0.4347664118	1.5129448175	1.6450781822	0.0000000000	0.0000000000	0.0000000000
0.2251954822	0.9107491970	0.4347664118	1.5129448175	1.6450781822	0.0000000000	0.0000000000	0.0000000000
0.2293657689	0.9107491970	0.4347664118	1.5129448175	1.6450781822	0.0000000000	0.0000000000	0.0000000000
0.2335360556	0.9107491970	0.4347664118	1.5129448175	1.6450781822	0.0000000000	0.0000000000	0.0000000000
0.2377063423	0.9107491970	0.4347664118	1.5129448175	1.6450781822	0.0000000000	0.0000000000	0.0000000000
0.2418766290	0.9107491970	0.4347664118	1.5129448175	1.6450781822	0.0000000000	0.0000000000	0.0000000000
0.2460469157	0.9107491970	0.4347664118	1.5129448175	1.6450781822	0.0000000000	0.0000000000	0.0000000000
0.2502172024	0.9107491970	0.4347664118	1.5129448175	1.6450781822	0.0000000000	0.0000000000	0.0000000000
0.2543874891	0.9107491970	0.4347664118	1.5129448175	1.6450781822	0.0000000000	0.0000000000	0.0000000000
0.2585577758	0.9107491970	0.4347664118	1.5129448175	1.6450781822	0.0000000000	0.0000000000	0.0000000000
0.2627280626	0.9107491970	0.4347664118	1.5129448175	1.6450781822	0.0000000000	0.0000000000	0.0000000000
0.2668983493	0.9107491970	0.4347664118	1.5129448175	1.6450781822	0.0000000000	0.0000000000	0.0000000000
0.2710686360	0.9107491970	0.4347664118	1.5129448175	1.6450781822	0.0000000000	0.0000000000	0.0000000000
0.2752389227	0.9107491970	0.4347664118	1.5129448175	1.6450781822	0.0000000000	0.0000000000	0.0000000000
0.2794092094	0.9107491970	0.4347664118	1.5129448175	1.6450781822	0.0000000000	0.0000000000	0.0000000000
0.2835794961	0.9107491970	0.4347664118	1.5129448175	1.6450781822	0.0000000000	0.0000000000	0.0000000000
0.2877497828	0.9107491970	0.4347664118	1.5129448175	1.6450781822	0.0000000000	0.0000000000	0.0000000000
0.2919200695	0.9107491970	0.4347664118	1.5129448175	1.6450781822	0.0000000000	0.0000000000	0.0000000000
0.2960903562	0.9107491970	0.4347664118	1.5129448175	1.6450781822	0.0000000000	0.0000000000	0.0000000000
0.3002606429	0.9107491970	0.4347664118	1.5129448175	1.6450781822	0.0000000000	0.0000000000	0.0000000000
0.3044309296	0.9107491970	0.4347664118	1.5129448175	1.6450781822	0.0000000000	0.0000000000	0.0000000000
0.3086012163	0.9107491970	0.4347664118	1.5129448175	1.6450781822	0.0000000000	0.0000000000	0.0000000000
0.3127715030	0.9107491970	0.4347664118	1.5129448175	1.6450781822	0.0000000000	0.0000000000	0.0000000000
0.3169417897	0.9107491970	0.4347664118	1.5129448175	1.6450781822	0.0000000000	0.0000000000	0.0000000000
0.3211120765	0.9107491970	0.4347664118	1.5129448175	1.6450781822	0.0000000000	0.0000000000	0.0000000000
0.3252823632	0.9107491970	0.4347664118	1.5129448175	1.6450781822	0.0000000000	0.0000000000	0.0000000000
0.3294526499	0.9107491970	0.4347664118	1.5129448175	1.6450781822	0.0000000000	0.0000000000	0.0000000000
0.3336229366	0.9107491970	0.4347664118	1.5129448175	1.6450781822	0.0000000000	0.0000000000	0.0000000000
0.3377932233	0.9107491970	0.4347664118	1.5129448175	1.6450781822	0.0000000000	0.0000000000	0.0000000000
0.3419635100	0.9107491970	0.4347664118	1.5129448175	1.6450781822	0.0000000000	0.0000000000	0.0000000000
0.3461337967	0.9107491970	0.4347664118	1.5129448175	1.6450781822	0.0000000000	0.0000000000	0.0000000000
0.3503040834	0.9107491970	0.4347664118	1.5129448175	1.6450781822	0.0000000000	0.0000000000	0.0000000000
0.3544743701	0.9107491970	0.4347664118	1.5129448175	1.6450781822	0.0000000000	0.0000000000	0.0000000000
0.3586446568	0.9107491970	0.4347664118	1.5129448175	1.6450781822	0.0000000000	0.0000000000	0.0000000000
0.3628149435	0.9107491970	0.4347664118	1.5129448175	1.6450781822	0.0000000000	0.0000000000	0.0000000000
0.3669852302	0.9107491970	0.4347664118	1.5129448175	1.6450781822	0.0000000000	0.0000000000	0.0000000000
0.3711555169	0.9107491970	0.4347664118	1.5129448175	1.6450781822	0.0000000000	0.0000000000	0.0000000000
0.3753258036	0.9107491970	0.4347664118	1.5129448175	1.6450781822	0.0000000000	0.0000000000	0.0000000000
0.3794960904	0.9107491970	0.4347664118	1.5129448175	1.6450781822	0.0000000000	0.0000000000	0.0000000000
0.3836663771	0.9107491970	0.4347664118	1.5129448175	1.6450781822	0.0000000000	0.0000000000	0.0000000000
0.3878366638	0.9107491970	0.4347664118	1.5129448175	1.6450781822	0.0000000000	0.0000000000	0.0000000000
0.3920069505	0.9107491970	0.4347664118	1.5129448175	1.6450781822	0.0000000000	0.0000000000	0.0000000000
0.3961772372	0.9107491970	0.4347664118	1.5129448175	1.6450781822	0.0000000000	0.0000000000	0.0000000000
0.4003475239	0.9107491970	0.4347664118	1.5129448175	1.6450781822	0.0000000000	0.0000000000	0.0000000000
0.4045178106	0.9107491970	0.4347664118	1.5129448175	1.6450781822	0.0000000000	0.0000000000	0.0000000000
0.4086880973	0.9107491970	0.4347664118	1.5129448175	1.6450781822	0.0000000000	0.0000000000	0.0000000000
0.4128583840	0.9107491970	0.4347664118	1.5129448175	1.6450781822	0.0000000000	0.0000000000	0.0000000000
0.4170286707	0.9107491970	0.4347664118	1.5129448175	1.6450781822	0.0000000000	0.0000000000	0.0000000000
0.4211989574	0.9107491970	0.4347664118	1.5129448175	1.6450781822	0.0000000000	0.0000000000	0.0000000000
0.4253692441	0.9107491970	0.4347664118	1.5129448175	1.6450781822	0.0000000000	0.0000000000	0.0000000000
0.4295395308	0.9107491970	0.4347664118	1.5129448175	1.6450781822	0.0000000000	0.0000000000	0.0000000000
0.4337098175	0.9107491970	0.4347664118	1.5129448175	1.6450781822	0.0000000000	0.0000000000	0.0000000000
0.4378801043	0.9107491970	0.4347664118	1.5129448175	1.6450781822	0.0000000000	0.0000000000	0.0000000000
0.4420503910	0.9107491970	0.4347664118	1.5129448175	1.6450781822	0.0000000000	0.0000000000	0.0000000000
0.4462206777	0.9107491970	0.4347664118	1.5129448175	1.6450781822	0.0000000000	0.0000000000	0.0000000000
0.4503909644	0.9107491970	0.4347664118	1.5129448175	1.6450781822	0.0000000000	0.0000000000	0.0000000000
0.4545612511	0.9107491970	0.4347664118	1.5129448175	1.6450781822	0.0000000000	0.0000000000	0.0000000000
0.4587315378	0.9107491970	0.4347664118	1.5129448175	1.6450781822	0.0000000000	0.0000000000	0.0000000000
0.4629018245	0.9107491970	0.4347664118	1.5129448175	1.6450781822	0.0000000000	0.0000000000	0.0000000000
0.4670721112	0.9107491970	0.4347664118	1.5129448175	1.6450781822	0.0000000000	0.0000000000	0.0000000000
0.4712423979	0.9107491970	0.4347664118	1.5129448175	1.6450781822	0.0000000000	0.0000000000	0.0000000000
0.4754126846	0.9107491970	0.4347664118	1.5129448175	1.6450781822	0.0000000000	0.0000000000	0.0000000000
